<?xml version="1.0" encoding="utf-8"?>
<svg version="1.0" xmlns="http://www.w3.org/2000/svg" width="2000.000000pt" height="2000.000000pt" viewBox="0 0 2000.000000 2000.000000" preserveAspectRatio="xMidYMid meet">
  <g transform="matrix(0.100187, 0, -0.000605, -0.097908, -423.311255, 1923.808867)" fill="#000000" stroke="none" style="">
    <path d="M 4842.85 17493.8 C 4846.74 17487 4857.12 17480.2 4863.62 17480.2 C 4871.4 17480.2 4872.7 17487 4868.8 17493.8 C 4864.91 17502 4854.53 17507.5 4848.04 17507.5 C 4840.26 17507.5 4838.95 17502 4842.85 17493.8 Z" style=""/>
    <path d="M 8226.83 15577.9 C 8135.98 15528.9 8085.34 15459.4 8039.9 15324.5 C 7995.74 15191 7948.97 14934.9 7948.93 14823.2 C 7948.93 14783.7 7945.03 14719.6 7939.83 14680.1 L 7932.03 14608 L 7765.92 14617.5 C 7615.39 14625.8 7595.92 14624.4 7572.54 14602.6 C 7538.81 14570 7538.79 14511.3 7573.83 14478.7 C 7597.18 14456.9 7625.73 14452.8 7768.47 14448.5 L 7935.87 14443.1 L 7938.42 14278.3 C 7939.71 14187 7940.95 13989.5 7942.21 13839.5 C 7943.45 13628.5 7948.63 13549.5 7966.79 13489.4 C 7995.31 13386 8045.91 13356 8101.72 13407.8 C 8127.69 13431 8127.69 13440.5 8117.42 13928.2 C 8112.31 14202 8108.45 14426.7 8111.06 14429.5 C 8113.66 14432.2 8152.58 14440.4 8199.31 14449.9 L 8283.66 14464.7 L 8475.67 14275.4 C 8582.06 14171.8 8722.18 14041.2 8785.75 13985.1 C 8850.63 13927.9 8946.63 13833.9 8999.83 13775.3 C 9084.15 13684 9101.01 13670.3 9129.56 13678.6 C 9180.19 13692.2 9194.47 13709.9 9194.48 13764.4 C 9194.49 13829.8 9184.12 13840.7 8785.81 14222.1 C 8608.07 14392.5 8460.17 14537 8457.56 14542.5 C 8454.97 14546.5 8486.14 14569.7 8525.06 14592.9 C 8726.23 14712.8 8818.42 14899.1 8801.63 15153.9 C 8791.25 15297 8778.3 15344.6 8725.12 15440.2 C 8690.09 15501.5 8668.03 15521.9 8604.45 15555.9 C 8538.29 15590 8509.73 15596.9 8403.32 15600.9 C 8298.2 15605 8272.26 15600.9 8226.83 15577.9 Z M 8461.68 15418.3 C 8531.75 15406.2 8566.78 15381.6 8596.63 15320.3 C 8647.2 15215.3 8641.95 14959.3 8587.43 14881.7 C 8545.87 14821.7 8313.57 14667.7 8218.82 14635.2 C 8169.51 14618.8 8126.68 14609.3 8122.79 14613.4 C 8108.52 14628.3 8142.35 15091.5 8163.14 15174.7 C 8202.11 15328.5 8300.76 15449.7 8377.33 15434.7 C 8395.5 15430.6 8433.12 15423.7 8461.68 15418.3 Z" style="transform-origin: 8001.99px 14256px;"/>
    <path d="M 4873.29 14439.9 L 4873.02 13302.3 L 5152.02 13302.3 L 5431.03 13302.2 L 5431.15 13744.9 L 5431.25 14187.7 L 5519.5 14187.7 C 5807.58 14188.9 5985.4 14287 6077.58 14498.2 C 6108.74 14570.3 6112.64 14594.8 6120.49 14841.5 C 6127.02 15002.2 6125.73 15131.6 6117.97 15168.4 C 6088.15 15310.1 5964.91 15463.9 5824.77 15533.5 L 5749.51 15570.4 L 5312.18 15574.5 L 4873.56 15578.7 L 4873.29 14439.9 Z M 5726.08 15240.7 C 5809.11 15199.7 5820.8 15160.2 5820.72 14897.3 C 5820.64 14549.9 5805.07 14525.4 5571.47 14517.3 L 5431.33 14511.9 L 5431.41 14894.7 L 5431.52 15276.2 L 5558.68 15268 C 5627.47 15263.9 5704.01 15251.6 5726.08 15240.7 Z" style="transform-origin: 8001.99px 14256px;"/>
    <path d="M 10070.7 15461.6 C 9859.24 15389.4 9737.27 15288.5 9619.17 15085.7 C 9536.03 14942.7 9520.48 14899 9485.41 14698.8 C 9459.39 14554.4 9454.2 14478.1 9454.09 14275.1 C 9454.09 14057.2 9457.96 14010.8 9485.19 13899.2 C 9539.67 13674.4 9608.37 13540.8 9762.75 13359.5 C 9870.48 13234.3 9969.08 13157.9 10105.3 13100.7 C 10266.1 13031.1 10327.3 13022.9 10463.4 13048.9 C 10630.8 13081.5 10729.5 13146.7 10850.1 13304.8 C 10937.1 13419.2 10981.4 13500.9 11047.5 13675.3 C 11126.7 13883.7 11130.6 13909.6 11130.7 14352.3 C 11130.8 14800.6 11117.9 14909.6 11050.4 15066.2 C 10942.8 15315.6 10789.8 15439.5 10525 15488.7 C 10353.7 15519.9 10221.3 15511.9 10070.7 15461.6 Z M 10522.3 15377 C 10705.4 15333.3 10784.5 15277.4 10922.1 15096.2 C 10972.6 15028.1 10986.8 14992.7 11045.3 14795.1 C 11080.2 14675.2 11080.2 14671.2 11072.3 14386.4 C 11064.5 14045.9 11035.8 13825.2 10983.9 13693 C 10941.1 13584.1 10773.6 13336.1 10695.8 13266.8 C 10621.8 13200 10525.7 13155.1 10434.8 13144.2 L 10357 13134.6 L 10416.7 13204.1 C 10536.1 13343 10610.3 13491.5 10654.4 13683.6 C 10682.8 13804.8 10694.7 14137.3 10675.2 14281.6 C 10666.1 14345.8 10654.5 14431.5 10649.2 14472.4 C 10644.1 14513.2 10633.8 14559.6 10624.7 14574.5 C 10616.9 14589.5 10584.5 14661.8 10552.1 14735.3 C 10458.7 14949.3 10310.8 15120.9 10108.4 15251.8 L 10014.9 15311.6 L 10102 15336.2 C 10335.5 15404.2 10384.8 15409.7 10522.3 15377 Z M 10017.6 15160.4 C 10064.2 15133.3 10103.2 15106 10103.2 15102 C 10103.2 15096.4 10087.6 15081.5 10066.8 15066.5 C 10035.6 15044.7 9911.07 14860.8 9870.82 14776.3 C 9861.77 14758.5 9840.93 14678.2 9824.06 14596.5 C 9794.18 14453.4 9792.86 14435.8 9804.55 14183.7 C 9816.12 13900.4 9845.9 13742.3 9914.71 13600.7 C 9952.31 13524.3 10019.7 13437.2 10043 13437.2 C 10052.1 13437.2 10070.2 13424.9 10084.5 13408.6 C 10118.3 13369.1 10226 13313.1 10301.2 13294 L 10363.5 13279 L 10336.2 13242.2 C 10268.8 13152.3 10191 13144.3 10052.1 13213.7 C 9875.68 13303.7 9726.47 13491.8 9634.39 13742.5 C 9570.87 13915.5 9544.96 14062.6 9535.91 14290 C 9529.42 14468.6 9532.06 14513.6 9558.08 14644.3 C 9573.63 14726.1 9599.65 14828.2 9616.52 14870.5 C 9652.81 14963.1 9767.05 15140.1 9821.64 15189.1 C 9870.93 15232.7 9899.49 15227.2 10017.6 15160.4 Z M 10308.2 14924.7 C 10427.4 14798 10476.8 14705.4 10527.3 14510.5 C 10575.4 14323.8 10596.1 14145.4 10596 13905.7 L 10596 13736.8 L 10536.2 13578.8 C 10450.4 13353.9 10441.4 13349.8 10239 13453.4 C 10139.1 13504 10119.7 13520.3 10069.1 13595.2 C 9958.82 13757.3 9914.71 13950.8 9918.67 14240.9 C 9923.97 14513.4 9939.52 14597.8 10013.5 14751.9 C 10079.7 14888 10171.8 15017.4 10204.3 15017.4 C 10213.4 15017.4 10260.1 14975.1 10308.2 14924.7 Z" style="transform-origin: 8001.99px 14256px;"/>
    <path d="M 6259.24 14473.6 C 6241.09 14458.7 6222.9 14427.3 6217.72 14402.8 C 6193.03 14282.9 6186.48 14035 6198.08 13718.9 L 6212.27 13378.3 L 6257.67 13283 C 6310.84 13173.8 6475.61 12994 6566.44 12947.7 C 6640.4 12909.6 6736.42 12900.1 6819.48 12920.3 C 6873.99 12934 6902.54 12953 6964.85 13017 C 7007.69 13062 7049.23 13097.4 7057.01 13097.4 C 7064.8 13097.4 7107.61 13060.6 7150.41 13017 C 7269.77 12892.9 7348.94 12895.7 7378.81 13022.4 C 7393.1 13087.8 7395.98 14264.8 7381.71 14305.7 C 7364.87 14350.6 7240.31 14485.6 7205.28 14493.8 C 7149.49 14508.8 7113.13 14495.1 7081.99 14446.1 C 7052.13 14399.8 7052.13 14399.8 7054.61 13947.4 C 7055.79 13440.7 7057.09 13451.6 6961.04 13365.7 C 6870.18 13284.1 6749.48 13255.6 6634.01 13289.6 C 6545.77 13315.5 6540.58 13336 6543.26 13669.7 C 6544.6 13830.5 6540.74 14044.4 6534.28 14145.1 L 6521.35 14327.8 L 6450 14401.3 C 6339.72 14510.2 6315.06 14519.8 6259.24 14473.6 Z M 7037.58 13258.1 C 7034.98 13250 7024.59 13239.1 7016.81 13236.4 C 7007.72 13233.6 7003.82 13239.1 7009.03 13252.7 C 7018.12 13277.3 7045.37 13282.7 7037.58 13258.1 Z" style="transform-origin: 8001.99px 14256px;"/>
    <path d="M 21689.6 15825.3 C 21510.9 15763.1 21406.1 15699.5 21375.5 15634.3 C 21365 15612.7 21334.4 15534.5 21309.2 15460.7 C 21284.1 15388.3 21233.8 15268.1 21198.1 15195.7 C 21161 15123.3 21117.2 15020.6 21098.7 14968.4 C 21054.9 14839.5 20954.2 14393.5 20927.6 14212.6 C 20915.7 14133 20901.1 14046.2 20894.5 14021.4 C 20887.9 13995.5 20883.8 13973.8 20886.5 13973.8 C 20889.2 13973.8 20883.8 13946.2 20873.4 13914.4 C 20845.4 13830.4 20848.2 13775.3 20886.5 13687 C 20955.5 13523.2 21036.3 13452.3 21180.8 13423.1 C 21346.4 13391.1 21448.5 13444.8 21616.7 13651.8 C 21857.9 13946.9 21998.3 14165.5 22054 14333.4 C 22116.3 14517.3 22173.2 14649 22203.7 14678 C 22222.4 14695.5 22259.4 14712.8 22284.7 14718.5 C 22309.8 14724.3 22405.2 14766.1 22496.7 14812.5 C 22588.1 14858.8 22704.7 14910.7 22755.1 14928.2 C 22945.9 14990.3 23024 15029.2 23071.7 15087.2 C 23098.3 15119 23122.1 15159.7 23127.5 15179.9 C 23135.4 15213.2 23115.5 15274 23090.2 15291.4 C 23077.1 15300.1 22986.9 15284.1 22828 15242.4 C 22436.9 15139.8 22378.6 15131 22354.8 15164.4 C 22347 15173.3 22333.7 15254.3 22324.4 15341.2 C 22305.8 15517.8 22287.1 15568.6 22193.1 15706 C 22142.8 15780.1 22116.3 15803.3 22044.8 15839.5 C 21991.7 15865.6 21936 15884.6 21905.7 15884.6 C 21876.5 15883.1 21779.7 15857.1 21689.6 15825.3 Z M 22027.6 15529.7 C 22031.5 15509.3 22034.2 15428.2 22030.1 15350 C 22026.3 15224.1 22020.9 15201 21989.1 15147.2 C 21958.6 15096.6 21945.5 15086.5 21916.2 15091 C 21864.5 15096.7 21844.6 15148.9 21851.3 15261.8 C 21862 15445.8 21998.3 15654.2 22027.6 15529.7 Z M 21652.5 14976.8 C 21683 14931.9 21732 14866.6 21761.2 14831.7 C 21831.4 14744.8 21828.8 14711.7 21737.4 14503.2 C 21604.9 14202 21516 14067.4 21367.7 13950.1 C 21286.7 13885.1 21245.6 13888 21240.3 13958.9 C 21228.4 14090.9 21302.6 14503.5 21384.8 14766.9 C 21468.4 15027.6 21485.6 15059.4 21550.5 15059.3 C 21590.2 15059.3 21603.5 15049.2 21652.5 14976.8 Z" style=""/>
    <path d="M 19002.2 15689.6 C 18998.2 15676.7 18996.9 15271.1 19000.9 14787.5 C 19004.9 14305.3 19003.5 13896.8 18998.2 13880.9 C 18984.9 13840.4 19016.8 13195.9 19032.7 13178.6 C 19041.9 13168.4 19158.6 13165.4 19344.2 13166.8 L 19640.9 13170.9 L 19645 13330.3 C 19647.5 13418.5 19642.2 13737.1 19634.3 14041.3 C 19625 14345.3 19617 14723.4 19615.8 14884.1 C 19614.5 15095.6 19610.5 15179.4 19597.2 15192.5 C 19587.9 15204.1 19525.6 15214.2 19438.2 15220.2 L 19296.5 15227.4 L 19296.5 15408.4 L 19296.5 15589.5 L 19336.1 15598.1 C 19358.8 15603.9 19493.9 15608.2 19638.3 15609.5 C 19851.7 15610.8 19908.6 15606.4 19940.4 15587.5 C 19977.5 15567.3 19985.5 15567.3 20035.8 15588.9 C 20072.9 15603.5 20122 15610.6 20177.6 15607.7 L 20263.8 15603.4 L 20273 15429.5 C 20278.4 15321 20275.6 15248.6 20267.7 15238.4 C 20259.8 15226.8 20204 15219.6 20114.1 15216.6 L 19972.3 15212.6 L 19976.3 15176.2 C 19977.5 15156 19985.5 14840.4 19993.4 14473.9 C 19999.9 14107.6 20010.6 13664.4 20016 13489.2 L 20025.2 13170.6 L 20270.5 13170.5 L 20515.6 13170.1 L 20519.5 14441.7 L 20522.3 15711.6 L 19766.8 15712.2 C 19085.7 15712.6 19010.1 15710 19002.2 15689.6 Z" style=""/>
    <path d="M 13076.1 15608.5 C 12838.8 15552.1 12640.1 15368.2 12495.6 15070.2 C 12379.1 14828.2 12348.6 14654.6 12380.5 14389.6 C 12404.2 14182.4 12437.3 14056.5 12508.9 13892.8 C 12604.4 13681.1 12809.7 13485.5 13029.8 13397.2 C 13090.6 13372.5 13137.1 13365.2 13240.3 13365.1 C 13355.8 13364.9 13390.2 13372.2 13505.6 13414.2 C 13578.3 13440.2 13656.6 13477.7 13677.7 13496.6 C 13700.4 13515.4 13749.3 13557.5 13787.8 13589.1 C 13928.1 13706.3 13952.1 13891.8 13826.1 13891.8 C 13733.4 13891.9 13656.6 13860.1 13582.3 13790.6 C 13490.9 13702.5 13406.1 13669.1 13273.5 13669.2 C 13159.5 13669.2 13085.3 13699.7 12975.4 13789.6 C 12865.4 13880.9 12813.8 13976.5 12784.5 14146 C 12747.4 14354.4 12739.5 14502.3 12755.5 14670.2 C 12779.3 14916.3 12846.8 15054 13003.1 15175.3 C 13102.7 15253.5 13180.8 15282.5 13289.4 15282.5 C 13374.3 15282.3 13425.9 15260.6 13496.2 15194 C 13520 15170.7 13544 15151.9 13549.1 15151.9 C 13583.7 15151.8 13824.7 15251.6 13835.4 15271.8 C 13869.9 15331.2 13742.6 15477.6 13599.6 15541.4 C 13408.8 15628.4 13246.9 15648.8 13076.1 15608.5 Z" style=""/>
    <path d="M 15866.7 15567.3 C 15845.7 15549.8 15844.4 15474.6 15846.9 14520.3 L 15851 13492.1 L 16464.5 13487.3 L 17076.8 13484 L 17076.8 13773.7 L 17076.8 14063.3 L 16776 14066.4 L 16473.7 14070.9 L 16472.5 14162.2 C 16469.9 14269.3 16463.2 14264.9 16652.7 14270.7 L 16778.6 14273.5 L 16782.5 14545.8 L 16785.2 14816.5 L 16654 14816.5 C 16581.2 14816.6 16513.7 14820.9 16501.6 14825.4 C 16485.7 14832.5 16480.4 14855.7 16480.4 14919.5 L 16480.4 15004.9 L 16749.4 15004.8 C 16896.5 15004.7 17030.3 15009 17047.6 15013.2 C 17076.8 15021.9 17076.8 15024.8 17076.8 15294.1 C 17076.8 15528.7 17074 15567.8 17055.5 15575 C 17043.6 15579.4 16777.3 15584 16461.9 15584.2 C 16024.6 15584.4 15884.1 15580.4 15866.7 15567.3 Z" style=""/>
    <path d="M 15245.4 15299.8 L 15155.2 15294.1 L 15163.3 15030.5 C 15172.6 14732.3 15150 14008.2 15122.2 13685.3 C 15102.3 13453.5 15074.4 13356.5 15021.5 13326.1 C 15001.5 13313.1 14957.8 13310.4 14891.6 13316.2 C 14724.5 13329.3 14653.1 13352.5 14594.7 13413.3 L 14541.7 13467 L 14529.8 13632.1 C 14504.7 13975.3 14411.8 15129.6 14409.3 15142.4 C 14403.8 15158.4 14198.5 15154.2 14184 15136.9 C 14177.3 15131 14187.8 14884.9 14206.3 14592.4 C 14225 14298.4 14246.3 13940.7 14254.1 13797.4 C 14271.4 13475.9 14287.3 13354.2 14319 13284.8 C 14397.3 13119.5 14578.8 13045.5 14916.8 13043.9 C 15124.8 13043.7 15172.6 13061.1 15242.7 13162.4 C 15315.5 13266.6 15401.7 13608.3 15433.5 13912.3 C 15448.2 14061.5 15450.8 14658 15437.6 15046.1 L 15429.7 15309.8 L 15381.8 15307.1 C 15355.4 15305.5 15294.5 15302.7 15245.4 15299.8 Z" style=""/>
    <path d="M 17520.8 15292.4 C 17491.6 15285.1 17463.6 15273.5 17457 15266.3 C 17451.9 15260.6 17461 15098.4 17479.7 14908.6 C 17498.2 14718.9 17534 14317.8 17560.5 14019.5 C 17586.9 13721.2 17610.7 13459.1 17614.9 13437.4 C 17630.6 13350.6 17750 13307 17805.6 13367.7 C 17820.2 13383.6 17832.1 13404 17832.1 13412.7 C 17832.1 13421.2 17943.5 13660.1 18078.7 13943.9 C 18303.9 14412.9 18372.8 14540.2 18404.6 14540.2 C 18409.9 14540.2 18415.1 14311.6 18415.1 14033.5 L 18415.1 13526.5 L 18449.6 13512.1 C 18501.4 13490.2 18568.9 13494.5 18588.8 13522.1 C 18603.4 13540.8 18608.6 13674.1 18611.3 14220.1 C 18613.9 14590.8 18611.3 14909.5 18607.3 14926.7 C 18603.4 14944.1 18584.7 14977.4 18566.1 15002 C 18523.9 15058.6 18466.9 15062.9 18424.5 15012.3 C 18400.5 14983.5 18226.9 14663.5 17833.3 13925.3 C 17808.2 13877.5 17785.7 13845.6 17784.4 13852.8 C 17781.6 13861.5 17761.8 14088.9 17739.3 14359.7 C 17689 14972.2 17662.5 15217 17642.6 15264.9 C 17624 15305.4 17597.5 15312.6 17520.8 15292.4 Z" style=""/>
    <path d="M 7682.21 9119.79 C 7658.86 9110.24 7661.45 9088.45 7684.82 9088.45 C 7695.2 9088.45 7704.28 9097.99 7704.28 9108.89 C 7704.28 9119.79 7702.98 9129.32 7701.68 9127.96 C 7699.08 9127.96 7690 9123.87 7682.21 9119.79 Z" style=""/>
    <path d="M 7808.09 8788.74 C 7808.09 8771.03 7847.03 8771.03 7872.98 8788.74 C 7887.26 8798.27 7882.07 8802.37 7850.92 8802.37 C 7827.55 8802.37 7808.09 8796.92 7808.09 8788.74 Z" style=""/>
    <path d="M 8695.72 8583.04 C 8681.44 8558.51 8709.99 8540.81 8756.71 8546.25 C 8786.56 8548.98 8802.13 8558.51 8804.73 8574.86 C 8808.63 8593.93 8799.54 8598.02 8756.71 8598.02 C 8728.17 8598.02 8700.91 8591.21 8695.72 8583.04 Z" style=""/>
    <path d="M8935 5737 c-4 -10 -5 -21 -1 -24 10 -10 18 4 13 24 -4 17 -4 17 -12 0z"/>
  </g>
</svg>